<svg xmlns="http://www.w3.org/2000/svg" width="531" height="61.05867720363426" viewBox="0 0 531 61.05867720363426" class="editor-view__logo-preview" data-v-719f541d="" data-v-75053935=""><svg id="mark" viewBox="0 0 32 32" width="56" height="56" x="0" y="2.5293386018171304" data-v-719f541d="" style="fill: rgb(255, 117, 26);"><rect x="0" y="0" width="100%" height="100%" fill="none" data-v-719f541d=""></rect><g data-v-719f541d=""><g xmlns="http://www.w3.org/2000/svg"><g><polygon points="9.382,8.675 23.325,8.675 23.325,22.618 32,31.293 32,0 0.707,0   "></polygon><polygon points="22.618,23.325 8.675,23.325 8.675,9.382 0,0.707 0,32 31.293,32   "></polygon></g></g></g></svg><svg id="name" viewBox="0 0 247.90341186523438 33.944602966308594" width="247" height="33.82090173585879" x="62" y="4" data-v-719f541d="" style="fill: rgb(255, 117, 26);"><rect x="0" y="0" width="100%" height="100%" fill="none" data-v-719f541d=""></rect><g data-v-719f541d=""><path xmlns="http://www.w3.org/2000/svg" d="M0 0L7.07 0L7.07 33.45L0 33.45L0 0ZM19.73 18.95L19.73 18.95L19.73 33.45L12.77 33.45L12.77 8.36L19.41 8.36L19.41 12.79L19.70 12.79Q20.53 10.60 22.49 9.32Q24.45 8.04 27.25 8.04L27.25 8.04Q29.86 8.04 31.80 9.18Q33.75 10.32 34.83 12.44Q35.90 14.55 35.90 17.48L35.90 17.48L35.90 33.45L28.95 33.45L28.95 18.72Q28.96 16.42 27.77 15.12Q26.58 13.82 24.49 13.82L24.49 13.82Q23.08 13.82 22.01 14.42Q20.94 15.03 20.35 16.18Q19.75 17.33 19.73 18.95ZM48.34 33.45L41.38 33.45L41.38 8.36L48.01 8.36L48.01 12.79L48.30 12.79Q49.09 10.59 50.92 9.31Q52.75 8.04 55.29 8.04L55.29 8.04Q57.88 8.04 59.69 9.32Q61.50 10.60 62.11 12.79L62.11 12.79L62.37 12.79Q63.14 10.63 65.15 9.34Q67.17 8.04 69.93 8.04L69.93 8.04Q73.44 8.04 75.64 10.27Q77.84 12.50 77.84 16.58L77.84 16.58L77.84 33.45L70.89 33.45L70.89 17.95Q70.89 15.86 69.78 14.82Q68.67 13.77 67.01 13.77L67.01 13.77Q65.11 13.77 64.05 14.97Q62.99 16.17 62.99 18.13L62.99 18.13L62.99 33.45L56.24 33.45L56.24 17.81Q56.24 15.96 55.19 14.87Q54.13 13.77 52.42 13.77L52.42 13.77Q51.26 13.77 50.34 14.35Q49.41 14.93 48.88 15.97Q48.34 17.00 48.34 18.39L48.34 18.39L48.34 33.45ZM94.66 33.94L94.66 33.94Q90.86 33.94 88.09 32.32Q85.32 30.69 83.82 27.78Q82.31 24.86 82.31 21.01L82.31 21.01Q82.31 17.12 83.82 14.20Q85.32 11.29 88.09 9.66Q90.86 8.04 94.66 8.04L94.66 8.04Q98.47 8.04 101.24 9.66Q104.01 11.29 105.51 14.20Q107.01 17.12 107.01 21.01L107.01 21.01Q107.01 24.86 105.51 27.78Q104.01 30.69 101.24 32.32Q98.47 33.94 94.66 33.94ZM94.70 28.55L94.70 28.55Q96.43 28.55 97.59 27.57Q98.75 26.58 99.34 24.86Q99.94 23.15 99.94 20.96L99.94 20.96Q99.94 18.77 99.34 17.05Q98.75 15.34 97.59 14.34Q96.43 13.35 94.70 13.35L94.70 13.35Q92.95 13.35 91.76 14.34Q90.58 15.34 89.98 17.05Q89.39 18.77 89.39 20.96L89.39 20.96Q89.39 23.15 89.98 24.86Q90.58 26.58 91.76 27.57Q92.95 28.55 94.70 28.55ZM120.65 5.83L110.41 5.83L110.41 0L137.89 0L137.89 5.83L127.64 5.83L127.64 33.45L120.65 33.45L120.65 5.83ZM153.63 33.94L153.63 33.94Q149.83 33.94 147.06 32.32Q144.29 30.69 142.79 27.78Q141.28 24.86 141.28 21.01L141.28 21.01Q141.28 17.12 142.79 14.20Q144.29 11.29 147.06 9.66Q149.83 8.04 153.63 8.04L153.63 8.04Q157.44 8.04 160.21 9.66Q162.98 11.29 164.48 14.20Q165.98 17.12 165.98 21.01L165.98 21.01Q165.98 24.86 164.48 27.78Q162.98 30.69 160.21 32.32Q157.44 33.94 153.63 33.94ZM153.67 28.55L153.67 28.55Q155.40 28.55 156.56 27.57Q157.72 26.58 158.31 24.86Q158.91 23.15 158.91 20.96L158.91 20.96Q158.91 18.77 158.31 17.05Q157.72 15.34 156.56 14.34Q155.40 13.35 153.67 13.35L153.67 13.35Q151.92 13.35 150.73 14.34Q149.55 15.34 148.95 17.05Q148.36 18.77 148.36 20.96L148.36 20.96Q148.36 23.15 148.95 24.86Q149.55 26.58 150.73 27.57Q151.92 28.55 153.67 28.55ZM181.44 20.97L176.83 26.23L176.85 17.89L177.86 17.89L185.89 8.36L193.88 8.36L183.09 20.97L181.44 20.97ZM177.48 33.45L170.52 33.45L170.52 0L177.48 0L177.48 33.45ZM194.36 33.45L186.21 33.45L178.82 22.53L183.46 17.61L194.36 33.45ZM208.72 33.94L208.72 33.94Q204.84 33.94 202.06 32.37Q199.27 30.79 197.77 27.89Q196.27 24.99 196.27 21.02L196.27 21.02Q196.27 17.15 197.77 14.23Q199.27 11.30 202.01 9.67Q204.75 8.04 208.44 8.04L208.44 8.04Q210.92 8.04 213.07 8.83Q215.22 9.62 216.83 11.21Q218.43 12.79 219.33 15.18Q220.23 17.58 220.23 20.78L220.23 20.78L220.23 22.69L199.04 22.69L199.04 18.38L213.68 18.38Q213.68 16.87 213.03 15.71Q212.37 14.55 211.22 13.89Q210.07 13.23 208.55 13.23L208.55 13.23Q206.97 13.23 205.75 13.96Q204.53 14.69 203.85 15.90Q203.16 17.12 203.14 18.61L203.14 18.61L203.14 22.71Q203.14 24.57 203.84 25.92Q204.53 27.28 205.81 28.01Q207.08 28.75 208.83 28.75L208.83 28.75Q209.99 28.75 210.95 28.42Q211.92 28.10 212.60 27.44Q213.29 26.79 213.65 25.84L213.65 25.84L220.08 26.27Q219.59 28.59 218.08 30.31Q216.57 32.03 214.20 32.99Q211.82 33.94 208.72 33.94ZM231.73 18.95L231.73 18.95L231.73 33.45L224.77 33.45L224.77 8.36L231.40 8.36L231.40 12.79L231.70 12.79Q232.53 10.60 234.49 9.32Q236.45 8.04 239.25 8.04L239.25 8.04Q241.86 8.04 243.80 9.18Q245.75 10.32 246.83 12.44Q247.90 14.55 247.90 17.48L247.90 17.48L247.90 33.45L240.94 33.45L240.94 18.72Q240.96 16.42 239.77 15.12Q238.58 13.82 236.49 13.82L236.49 13.82Q235.08 13.82 234.01 14.42Q232.94 15.03 232.34 16.18Q231.75 17.33 231.73 18.95Z"></path></g></svg><svg id="slogan" viewBox="0 0 469.7265625 19.267578125" width="469" height="19.237775467775467" x="62" y="41.82090173585879" data-v-719f541d="" style="fill: rgb(240, 234, 234);"><rect x="0" y="0" width="100%" height="100%" fill="none" data-v-719f541d=""></rect><g data-v-719f541d=""><path xmlns="http://www.w3.org/2000/svg" d="M5.50 10.20L2.93 10.20L2.93 15.21L0 15.21L0 0.99L5.55 0.99Q7.15 0.99 8.36 1.57Q9.58 2.16 10.23 3.24Q10.89 4.32 10.89 5.69L10.89 5.69Q10.89 7.78 9.46 8.99Q8.03 10.20 5.50 10.20L5.50 10.20ZM2.93 3.36L2.93 7.82L5.55 7.82Q6.71 7.82 7.32 7.28Q7.93 6.73 7.93 5.71L7.93 5.71Q7.93 4.67 7.31 4.02Q6.70 3.38 5.62 3.36L5.62 3.36L2.93 3.36ZM18.69 4.57L18.65 7.29Q18.08 7.21 17.64 7.21L17.64 7.21Q16.04 7.21 15.54 8.29L15.54 8.29L15.54 15.21L12.71 15.21L12.71 4.64L15.38 4.64L15.46 5.90Q16.31 4.44 17.81 4.44L17.81 4.44Q18.28 4.44 18.69 4.57L18.69 4.57ZM19.22 9.95L19.22 9.82Q19.22 8.25 19.82 7.02Q20.43 5.79 21.57 5.12Q22.71 4.44 24.21 4.44L24.21 4.44Q26.35 4.44 27.70 5.75Q29.05 7.06 29.21 9.31L29.21 9.31L29.23 10.03Q29.23 12.46 27.87 13.93Q26.51 15.40 24.23 15.40Q21.94 15.40 20.58 13.94Q19.22 12.47 19.22 9.95L19.22 9.95ZM22.04 10.03L22.04 10.03Q22.04 11.53 22.61 12.33Q23.17 13.13 24.23 13.13L24.23 13.13Q25.25 13.13 25.83 12.34Q26.41 11.55 26.41 9.82L26.41 9.82Q26.41 8.35 25.83 7.54Q25.25 6.73 24.21 6.73L24.21 6.73Q23.17 6.73 22.61 7.53Q22.04 8.34 22.04 10.03ZM40.48 9.87L40.48 10.02Q40.48 12.46 39.37 13.93Q38.26 15.40 36.38 15.40L36.38 15.40Q34.78 15.40 33.79 14.29L33.79 14.29L33.79 19.27L30.97 19.27L30.97 4.64L33.58 4.64L33.68 5.67Q34.71 4.44 36.36 4.44L36.36 4.44Q38.31 4.44 39.39 5.89Q40.48 7.33 40.48 9.87L40.48 9.87ZM37.66 9.81L37.66 9.81Q37.66 8.34 37.13 7.54Q36.61 6.74 35.62 6.74L35.62 6.74Q34.29 6.74 33.79 7.75L33.79 7.75L33.79 12.08Q34.31 13.13 35.63 13.13L35.63 13.13Q37.66 13.13 37.66 9.81ZM45.21 4.64L45.21 15.21L42.37 15.21L42.37 4.64L45.21 4.64ZM42.21 1.90L42.21 1.90Q42.21 1.27 42.63 0.86Q43.06 0.45 43.79 0.45L43.79 0.45Q44.51 0.45 44.94 0.86Q45.37 1.27 45.37 1.90L45.37 1.90Q45.37 2.55 44.94 2.96Q44.50 3.37 43.79 3.37Q43.08 3.37 42.64 2.96Q42.21 2.55 42.21 1.90ZM52.39 15.40L52.39 15.40Q50.07 15.40 48.61 13.97Q47.15 12.55 47.15 10.18L47.15 10.18L47.15 9.90Q47.15 8.31 47.76 7.06Q48.38 5.80 49.51 5.12Q50.63 4.44 52.08 4.44L52.08 4.44Q54.25 4.44 55.49 5.81Q56.74 7.18 56.74 9.69L56.74 9.69L56.74 10.84L50.01 10.84Q50.15 11.88 50.83 12.50Q51.52 13.13 52.58 13.13L52.58 13.13Q54.21 13.13 55.13 11.94L55.13 11.94L56.51 13.50Q55.88 14.39 54.79 14.90Q53.71 15.40 52.39 15.40ZM52.07 6.73L52.07 6.73Q51.23 6.73 50.71 7.29Q50.19 7.86 50.04 8.92L50.04 8.92L53.96 8.92L53.96 8.69Q53.95 7.75 53.46 7.24Q52.97 6.73 52.07 6.73ZM57.90 9.84L57.90 9.84Q57.90 7.37 59.01 5.91Q60.12 4.44 62.04 4.44L62.04 4.44Q63.58 4.44 64.59 5.60L64.59 5.60L64.59 0.21L67.42 0.21L67.42 15.21L64.87 15.21L64.74 14.08Q63.68 15.40 62.02 15.40L62.02 15.40Q60.16 15.40 59.03 13.93Q57.90 12.46 57.90 9.84ZM60.72 10.05L60.72 10.05Q60.72 11.53 61.24 12.32Q61.76 13.12 62.74 13.12L62.74 13.12Q64.05 13.12 64.59 12.01L64.59 12.01L64.59 7.84Q64.06 6.74 62.76 6.74L62.76 6.74Q60.72 6.74 60.72 10.05ZM78.58 15.21L75.73 15.21Q75.54 14.82 75.45 14.26L75.45 14.26Q74.42 15.40 72.78 15.40L72.78 15.40Q71.23 15.40 70.21 14.50Q69.19 13.60 69.19 12.24L69.19 12.24Q69.19 10.56 70.43 9.66Q71.68 8.76 74.03 8.75L74.03 8.75L75.33 8.75L75.33 8.14Q75.33 7.41 74.96 6.97Q74.58 6.53 73.77 6.53L73.77 6.53Q73.06 6.53 72.65 6.88Q72.25 7.22 72.25 7.81L72.25 7.81L69.42 7.81Q69.42 6.89 69.99 6.11Q70.56 5.33 71.59 4.89Q72.63 4.44 73.92 4.44L73.92 4.44Q75.87 4.44 77.02 5.42Q78.16 6.41 78.16 8.18L78.16 8.18L78.16 12.76Q78.17 14.27 78.58 15.04L78.58 15.04L78.58 15.21ZM73.40 13.24L73.40 13.24Q74.02 13.24 74.55 12.96Q75.08 12.69 75.33 12.22L75.33 12.22L75.33 10.40L74.28 10.40Q72.16 10.40 72.02 11.87L72.02 11.87L72.01 12.03Q72.01 12.56 72.38 12.90Q72.75 13.24 73.40 13.24ZM79.89 9.84L79.89 9.84Q79.89 7.37 81.00 5.91Q82.11 4.44 84.03 4.44L84.03 4.44Q85.58 4.44 86.58 5.60L86.58 5.60L86.58 0.21L89.41 0.21L89.41 15.21L86.87 15.21L86.73 14.08Q85.67 15.40 84.01 15.40L84.01 15.40Q82.15 15.40 81.02 13.93Q79.89 12.46 79.89 9.84ZM82.71 10.05L82.71 10.05Q82.71 11.53 83.23 12.32Q83.75 13.12 84.74 13.12L84.74 13.12Q86.04 13.12 86.58 12.01L86.58 12.01L86.58 7.84Q86.05 6.74 84.76 6.74L84.76 6.74Q82.71 6.74 82.71 10.05ZM96.46 15.40L96.46 15.40Q94.14 15.40 92.68 13.97Q91.22 12.55 91.22 10.18L91.22 10.18L91.22 9.90Q91.22 8.31 91.84 7.06Q92.45 5.80 93.58 5.12Q94.71 4.44 96.15 4.44L96.15 4.44Q98.32 4.44 99.57 5.81Q100.81 7.18 100.81 9.69L100.81 9.69L100.81 10.84L94.08 10.84Q94.22 11.88 94.91 12.50Q95.60 13.13 96.65 13.13L96.65 13.13Q98.28 13.13 99.20 11.94L99.20 11.94L100.59 13.50Q99.95 14.39 98.87 14.90Q97.78 15.40 96.46 15.40ZM96.14 6.73L96.14 6.73Q95.30 6.73 94.78 7.29Q94.26 7.86 94.11 8.92L94.11 8.92L98.04 8.92L98.04 8.69Q98.02 7.75 97.53 7.24Q97.04 6.73 96.14 6.73ZM108.13 12.29L108.13 12.29Q108.13 11.77 107.62 11.47Q107.11 11.17 105.98 10.94L105.98 10.94Q102.21 10.15 102.21 7.73L102.21 7.73Q102.21 6.33 103.37 5.39Q104.54 4.44 106.43 4.44L106.43 4.44Q108.44 4.44 109.64 5.39Q110.85 6.34 110.85 7.85L110.85 7.85L108.03 7.85Q108.03 7.25 107.64 6.85Q107.25 6.46 106.42 6.46L106.42 6.46Q105.70 6.46 105.31 6.78Q104.92 7.10 104.92 7.60L104.92 7.60Q104.92 8.07 105.37 8.35Q105.81 8.64 106.87 8.85Q107.92 9.06 108.64 9.33L108.64 9.33Q110.88 10.15 110.88 12.17L110.88 12.17Q110.88 13.61 109.64 14.51Q108.40 15.40 106.44 15.40L106.44 15.40Q105.11 15.40 104.08 14.93Q103.05 14.45 102.46 13.63Q101.88 12.80 101.88 11.85L101.88 11.85L104.55 11.85Q104.59 12.60 105.11 13.00Q105.63 13.40 106.49 13.40L106.49 13.40Q107.30 13.40 107.72 13.09Q108.13 12.78 108.13 12.29ZM127.98 0.99L127.98 3.36L123.62 3.36L123.62 15.21L120.69 15.21L120.69 3.36L116.40 3.36L116.40 0.99L127.98 0.99ZM126.99 9.95L126.99 9.82Q126.99 8.25 127.60 7.02Q128.20 5.79 129.34 5.12Q130.48 4.44 131.98 4.44L131.98 4.44Q134.12 4.44 135.47 5.75Q136.83 7.06 136.98 9.31L136.98 9.31L137.00 10.03Q137.00 12.46 135.64 13.93Q134.29 15.40 132.00 15.40Q129.72 15.40 128.35 13.94Q126.99 12.47 126.99 9.95L126.99 9.95ZM129.81 10.03L129.81 10.03Q129.81 11.53 130.38 12.33Q130.95 13.13 132.00 13.13L132.00 13.13Q133.03 13.13 133.60 12.34Q134.18 11.55 134.18 9.82L134.18 9.82Q134.18 8.35 133.60 7.54Q133.03 6.73 131.98 6.73L131.98 6.73Q130.95 6.73 130.38 7.53Q129.81 8.34 129.81 10.03ZM145.29 15.21L142.58 10.97L141.56 11.98L141.56 15.21L138.74 15.21L138.74 0.21L141.56 0.21L141.56 8.52L142.11 7.81L144.81 4.64L148.20 4.64L144.38 9.04L148.54 15.21L145.29 15.21ZM154.09 15.40L154.09 15.40Q151.77 15.40 150.31 13.97Q148.85 12.55 148.85 10.18L148.85 10.18L148.85 9.90Q148.85 8.31 149.46 7.06Q150.08 5.80 151.21 5.12Q152.33 4.44 153.78 4.44L153.78 4.44Q155.95 4.44 157.19 5.81Q158.44 7.18 158.44 9.69L158.44 9.69L158.44 10.84L151.71 10.84Q151.85 11.88 152.53 12.50Q153.22 13.13 154.28 13.13L154.28 13.13Q155.91 13.13 156.83 11.94L156.83 11.94L158.21 13.50Q157.58 14.39 156.49 14.90Q155.41 15.40 154.09 15.40ZM153.77 6.73L153.77 6.73Q152.93 6.73 152.41 7.29Q151.88 7.86 151.74 8.92L151.74 8.92L155.66 8.92L155.66 8.69Q155.64 7.75 155.16 7.24Q154.67 6.73 153.77 6.73ZM159.98 4.64L162.64 4.64L162.72 5.86Q163.86 4.44 165.76 4.44L165.76 4.44Q167.44 4.44 168.26 5.43Q169.08 6.42 169.10 8.38L169.10 8.38L169.10 15.21L166.28 15.21L166.28 8.45Q166.28 7.55 165.89 7.14Q165.50 6.74 164.59 6.74L164.59 6.74Q163.40 6.74 162.80 7.75L162.80 7.75L162.80 15.21L159.98 15.21L159.98 4.64ZM174.22 4.64L174.22 15.21L171.39 15.21L171.39 4.64L174.22 4.64ZM171.22 1.90L171.22 1.90Q171.22 1.27 171.65 0.86Q172.07 0.45 172.80 0.45L172.80 0.45Q173.53 0.45 173.96 0.86Q174.38 1.27 174.38 1.90L174.38 1.90Q174.38 2.55 173.95 2.96Q173.52 3.37 172.80 3.37Q172.09 3.37 171.66 2.96Q171.22 2.55 171.22 1.90ZM184.79 6.31L179.79 12.93L184.95 12.93L184.95 15.21L176.18 15.21L176.18 13.49L181.15 6.92L176.33 6.92L176.33 4.64L184.79 4.64L184.79 6.31ZM195.69 15.21L192.84 15.21Q192.65 14.82 192.56 14.26L192.56 14.26Q191.53 15.40 189.89 15.40L189.89 15.40Q188.34 15.40 187.32 14.50Q186.30 13.60 186.30 12.24L186.30 12.24Q186.30 10.56 187.54 9.66Q188.79 8.76 191.14 8.75L191.14 8.75L192.44 8.75L192.44 8.14Q192.44 7.41 192.07 6.97Q191.69 6.53 190.88 6.53L190.88 6.53Q190.17 6.53 189.76 6.88Q189.36 7.22 189.36 7.81L189.36 7.81L186.53 7.81Q186.53 6.89 187.10 6.11Q187.67 5.33 188.70 4.89Q189.74 4.44 191.03 4.44L191.03 4.44Q192.98 4.44 194.13 5.42Q195.27 6.41 195.27 8.18L195.27 8.18L195.27 12.76Q195.28 14.27 195.69 15.04L195.69 15.04L195.69 15.21ZM190.51 13.24L190.51 13.24Q191.13 13.24 191.66 12.96Q192.19 12.69 192.44 12.22L192.44 12.22L192.44 10.40L191.39 10.40Q189.27 10.40 189.13 11.87L189.13 11.87L189.12 12.03Q189.12 12.56 189.49 12.90Q189.86 13.24 190.51 13.24ZM197.00 9.84L197.00 9.84Q197.00 7.37 198.11 5.91Q199.22 4.44 201.14 4.44L201.14 4.44Q202.69 4.44 203.69 5.60L203.69 5.60L203.69 0.21L206.52 0.21L206.52 15.21L203.97 15.21L203.84 14.08Q202.78 15.40 201.12 15.40L201.12 15.40Q199.26 15.40 198.13 13.93Q197.00 12.46 197.00 9.84ZM199.82 10.05L199.82 10.05Q199.82 11.53 200.34 12.32Q200.86 13.12 201.85 13.12L201.85 13.12Q203.15 13.12 203.69 12.01L203.69 12.01L203.69 7.84Q203.16 6.74 201.87 6.74L201.87 6.74Q199.82 6.74 199.82 10.05ZM217.69 15.21L214.83 15.21Q214.64 14.82 214.55 14.26L214.55 14.26Q213.53 15.40 211.88 15.40L211.88 15.40Q210.33 15.40 209.31 14.50Q208.29 13.60 208.29 12.24L208.29 12.24Q208.29 10.56 209.54 9.66Q210.78 8.76 213.13 8.75L213.13 8.75L214.43 8.75L214.43 8.14Q214.43 7.41 214.06 6.97Q213.68 6.53 212.87 6.53L212.87 6.53Q212.16 6.53 211.75 6.88Q211.35 7.22 211.35 7.81L211.35 7.81L208.53 7.81Q208.53 6.89 209.09 6.11Q209.66 5.33 210.69 4.89Q211.73 4.44 213.02 4.44L213.02 4.44Q214.97 4.44 216.12 5.42Q217.27 6.41 217.27 8.18L217.27 8.18L217.27 12.76Q217.28 14.27 217.69 15.04L217.69 15.04L217.69 15.21ZM212.50 13.24L212.50 13.24Q213.13 13.24 213.65 12.96Q214.18 12.69 214.43 12.22L214.43 12.22L214.43 10.40L213.38 10.40Q211.26 10.40 211.12 11.87L211.12 11.87L211.11 12.03Q211.11 12.56 211.48 12.90Q211.86 13.24 212.50 13.24ZM225.16 12.29L225.16 12.29Q225.16 11.77 224.64 11.47Q224.13 11.17 223.00 10.94L223.00 10.94Q219.23 10.15 219.23 7.73L219.23 7.73Q219.23 6.33 220.40 5.39Q221.56 4.44 223.45 4.44L223.45 4.44Q225.46 4.44 226.67 5.39Q227.87 6.34 227.87 7.85L227.87 7.85L225.05 7.85Q225.05 7.25 224.66 6.85Q224.27 6.46 223.44 6.46L223.44 6.46Q222.72 6.46 222.33 6.78Q221.94 7.10 221.94 7.60L221.94 7.60Q221.94 8.07 222.39 8.35Q222.83 8.64 223.89 8.85Q224.94 9.06 225.66 9.33L225.66 9.33Q227.90 10.15 227.90 12.17L227.90 12.17Q227.90 13.61 226.66 14.51Q225.42 15.40 223.46 15.40L223.46 15.40Q222.13 15.40 221.10 14.93Q220.07 14.45 219.48 13.63Q218.90 12.80 218.90 11.85L218.90 11.85L221.57 11.85Q221.61 12.60 222.13 13.00Q222.65 13.40 223.52 13.40L223.52 13.40Q224.33 13.40 224.74 13.09Q225.16 12.78 225.16 12.29ZM230.45 18.77L230.45 18.77L228.97 18.00L229.33 17.36Q229.98 16.17 230 14.99L230 14.99L230 12.80L232.38 12.80L232.37 14.76Q232.36 15.84 231.83 16.94Q231.29 18.05 230.45 18.77ZM242.88 0.99L242.88 15.21L239.95 15.21L239.95 0.99L242.88 0.99ZM245.35 4.64L248.01 4.64L248.10 5.86Q249.23 4.44 251.13 4.44L251.13 4.44Q252.81 4.44 253.63 5.43Q254.45 6.42 254.47 8.38L254.47 8.38L254.47 15.21L251.65 15.21L251.65 8.45Q251.65 7.55 251.26 7.14Q250.87 6.74 249.96 6.74L249.96 6.74Q248.77 6.74 248.17 7.75L248.17 7.75L248.17 15.21L245.35 15.21L245.35 4.64ZM258.60 4.64L260.57 11.76L262.53 4.64L265.48 4.64L261.91 15.21L259.22 15.21L255.65 4.64L258.60 4.64ZM271.46 15.40L271.46 15.40Q269.13 15.40 267.67 13.97Q266.21 12.55 266.21 10.18L266.21 10.18L266.21 9.90Q266.21 8.31 266.83 7.06Q267.44 5.80 268.57 5.12Q269.70 4.44 271.14 4.44L271.14 4.44Q273.31 4.44 274.56 5.81Q275.80 7.18 275.80 9.69L275.80 9.69L275.80 10.84L269.07 10.84Q269.21 11.88 269.90 12.50Q270.59 13.13 271.64 13.13L271.64 13.13Q273.27 13.13 274.19 11.94L274.19 11.94L275.58 13.50Q274.94 14.39 273.86 14.90Q272.77 15.40 271.46 15.40ZM271.13 6.73L271.13 6.73Q270.29 6.73 269.77 7.29Q269.25 7.86 269.10 8.92L269.10 8.92L273.03 8.92L273.03 8.69Q273.01 7.75 272.52 7.24Q272.03 6.73 271.13 6.73ZM283.38 4.57L283.34 7.29Q282.76 7.21 282.32 7.21L282.32 7.21Q280.72 7.21 280.22 8.29L280.22 8.29L280.22 15.21L277.40 15.21L277.40 4.64L280.07 4.64L280.15 5.90Q281.00 4.44 282.50 4.44L282.50 4.44Q282.97 4.44 283.38 4.57L283.38 4.57ZM290.42 12.29L290.42 12.29Q290.42 11.77 289.91 11.47Q289.39 11.17 288.26 10.94L288.26 10.94Q284.49 10.15 284.49 7.73L284.49 7.73Q284.49 6.33 285.66 5.39Q286.83 4.44 288.71 4.44L288.71 4.44Q290.72 4.44 291.93 5.39Q293.13 6.34 293.13 7.85L293.13 7.85L290.31 7.85Q290.31 7.25 289.92 6.85Q289.53 6.46 288.70 6.46L288.70 6.46Q287.99 6.46 287.60 6.78Q287.21 7.10 287.21 7.60L287.21 7.60Q287.21 8.07 287.65 8.35Q288.10 8.64 289.15 8.85Q290.21 9.06 290.93 9.33L290.93 9.33Q293.16 10.15 293.16 12.17L293.16 12.17Q293.16 13.61 291.92 14.51Q290.68 15.40 288.72 15.40L288.72 15.40Q287.39 15.40 286.36 14.93Q285.33 14.45 284.75 13.63Q284.16 12.80 284.16 11.85L284.16 11.85L286.84 11.85Q286.88 12.60 287.39 13.00Q287.91 13.40 288.78 13.40L288.78 13.40Q289.59 13.40 290.00 13.09Q290.42 12.78 290.42 12.29ZM297.96 4.64L297.96 15.21L295.13 15.21L295.13 4.64L297.96 4.64ZM294.96 1.90L294.96 1.90Q294.96 1.27 295.39 0.86Q295.81 0.45 296.54 0.45L296.54 0.45Q297.27 0.45 297.70 0.86Q298.13 1.27 298.13 1.90L298.13 1.90Q298.13 2.55 297.69 2.96Q297.26 3.37 296.54 3.37Q295.83 3.37 295.40 2.96Q294.96 2.55 294.96 1.90ZM299.84 9.95L299.84 9.82Q299.84 8.25 300.45 7.02Q301.05 5.79 302.19 5.12Q303.33 4.44 304.83 4.44L304.83 4.44Q306.97 4.44 308.33 5.75Q309.68 7.06 309.83 9.31L309.83 9.31L309.85 10.03Q309.85 12.46 308.50 13.93Q307.14 15.40 304.85 15.40Q302.57 15.40 301.21 13.94Q299.84 12.47 299.84 9.95L299.84 9.95ZM302.67 10.03L302.67 10.03Q302.67 11.53 303.23 12.33Q303.80 13.13 304.85 13.13L304.85 13.13Q305.88 13.13 306.46 12.34Q307.03 11.55 307.03 9.82L307.03 9.82Q307.03 8.35 306.46 7.54Q305.88 6.73 304.83 6.73L304.83 6.73Q303.80 6.73 303.23 7.53Q302.67 8.34 302.67 10.03ZM311.53 4.64L314.19 4.64L314.28 5.86Q315.41 4.44 317.31 4.44L317.31 4.44Q318.99 4.44 319.81 5.43Q320.63 6.42 320.65 8.38L320.65 8.38L320.65 15.21L317.83 15.21L317.83 8.45Q317.83 7.55 317.44 7.14Q317.05 6.74 316.14 6.74L316.14 6.74Q314.95 6.74 314.36 7.75L314.36 7.75L314.36 15.21L311.53 15.21L311.53 4.64ZM327.66 15.40L327.66 15.40Q325.33 15.40 323.87 13.97Q322.41 12.55 322.41 10.18L322.41 10.18L322.41 9.90Q322.41 8.31 323.03 7.06Q323.64 5.80 324.77 5.12Q325.90 4.44 327.34 4.44L327.34 4.44Q329.51 4.44 330.76 5.81Q332.00 7.18 332.00 9.69L332.00 9.69L332.00 10.84L325.27 10.84Q325.41 11.88 326.10 12.50Q326.79 13.13 327.84 13.13L327.84 13.13Q329.47 13.13 330.39 11.94L330.39 11.94L331.78 13.50Q331.14 14.39 330.06 14.90Q328.97 15.40 327.66 15.40ZM327.33 6.73L327.33 6.73Q326.49 6.73 325.97 7.29Q325.45 7.86 325.30 8.92L325.30 8.92L329.23 8.92L329.23 8.69Q329.21 7.75 328.72 7.24Q328.23 6.73 327.33 6.73ZM339.33 12.29L339.33 12.29Q339.33 11.77 338.81 11.47Q338.30 11.17 337.17 10.94L337.17 10.94Q333.40 10.15 333.40 7.73L333.40 7.73Q333.40 6.33 334.57 5.39Q335.73 4.44 337.62 4.44L337.62 4.44Q339.63 4.44 340.83 5.39Q342.04 6.34 342.04 7.85L342.04 7.85L339.22 7.85Q339.22 7.25 338.83 6.85Q338.44 6.46 337.61 6.46L337.61 6.46Q336.89 6.46 336.50 6.78Q336.11 7.10 336.11 7.60L336.11 7.60Q336.11 8.07 336.56 8.35Q337.00 8.64 338.06 8.85Q339.11 9.06 339.83 9.33L339.83 9.33Q342.07 10.15 342.07 12.17L342.07 12.17Q342.07 13.61 340.83 14.51Q339.59 15.40 337.63 15.40L337.63 15.40Q336.30 15.40 335.27 14.93Q334.24 14.45 333.65 13.63Q333.07 12.80 333.07 11.85L333.07 11.85L335.74 11.85Q335.78 12.60 336.30 13.00Q336.82 13.40 337.69 13.40L337.69 13.40Q338.50 13.40 338.91 13.09Q339.33 12.78 339.33 12.29ZM356.43 11.47L356.43 11.47Q356.43 10.64 355.84 10.20Q355.25 9.76 353.73 9.26Q352.21 8.77 351.32 8.29L351.32 8.29Q348.90 6.98 348.90 4.77L348.90 4.77Q348.90 3.61 349.55 2.71Q350.20 1.81 351.41 1.30Q352.63 0.79 354.14 0.79L354.14 0.79Q355.66 0.79 356.86 1.34Q358.05 1.89 358.71 2.90Q359.37 3.91 359.37 5.19L359.37 5.19L356.44 5.19Q356.44 4.21 355.82 3.67Q355.21 3.13 354.09 3.13L354.09 3.13Q353.02 3.13 352.42 3.58Q351.83 4.03 351.83 4.78L351.83 4.78Q351.83 5.47 352.52 5.94Q353.22 6.41 354.58 6.82L354.58 6.82Q357.08 7.57 358.22 8.68Q359.37 9.79 359.37 11.46L359.37 11.46Q359.37 13.30 357.97 14.35Q356.57 15.40 354.21 15.40L354.21 15.40Q352.57 15.40 351.22 14.80Q349.87 14.20 349.17 13.15Q348.46 12.11 348.46 10.73L348.46 10.73L351.40 10.73Q351.40 13.09 354.21 13.09L354.21 13.09Q355.25 13.09 355.84 12.66Q356.43 12.24 356.43 11.47ZM364.14 4.64L364.14 15.21L361.31 15.21L361.31 4.64L364.14 4.64ZM361.14 1.90L361.14 1.90Q361.14 1.27 361.57 0.86Q361.99 0.45 362.72 0.45L362.72 0.45Q363.45 0.45 363.88 0.86Q364.31 1.27 364.31 1.90L364.31 1.90Q364.31 2.55 363.87 2.96Q363.44 3.37 362.72 3.37Q362.01 3.37 361.58 2.96Q361.14 2.55 361.14 1.90ZM366.46 4.64L369.11 4.64L369.20 5.82Q370.32 4.44 372.24 4.44L372.24 4.44Q374.28 4.44 375.04 6.05L375.04 6.05Q376.15 4.44 378.21 4.44L378.21 4.44Q379.93 4.44 380.77 5.44Q381.61 6.45 381.61 8.46L381.61 8.46L381.61 15.21L378.78 15.21L378.78 8.47Q378.78 7.57 378.43 7.15Q378.08 6.74 377.19 6.74L377.19 6.74Q375.92 6.74 375.43 7.95L375.43 7.95L375.44 15.21L372.62 15.21L372.62 8.48Q372.62 7.56 372.26 7.15Q371.89 6.74 371.03 6.74L371.03 6.74Q369.82 6.74 369.29 7.73L369.29 7.73L369.29 15.21L366.46 15.21L366.46 4.64ZM393.29 9.87L393.29 10.02Q393.29 12.46 392.18 13.93Q391.07 15.40 389.19 15.40L389.19 15.40Q387.59 15.40 386.60 14.29L386.60 14.29L386.60 19.27L383.78 19.27L383.78 4.64L386.40 4.64L386.49 5.67Q387.52 4.44 389.17 4.44L389.17 4.44Q391.12 4.44 392.21 5.89Q393.29 7.33 393.29 9.87L393.29 9.87ZM390.47 9.81L390.47 9.81Q390.47 8.34 389.95 7.54Q389.42 6.74 388.43 6.74L388.43 6.74Q387.10 6.74 386.60 7.75L386.60 7.75L386.60 12.08Q387.12 13.13 388.45 13.13L388.45 13.13Q390.47 13.13 390.47 9.81ZM398.02 0.21L398.02 15.21L395.19 15.21L395.19 0.21L398.02 0.21ZM403.32 4.64L403.32 15.21L400.49 15.21L400.49 4.64L403.32 4.64ZM400.32 1.90L400.32 1.90Q400.32 1.27 400.75 0.86Q401.17 0.45 401.90 0.45L401.90 0.45Q402.63 0.45 403.06 0.86Q403.49 1.27 403.49 1.90L403.49 1.90Q403.49 2.55 403.05 2.96Q402.62 3.37 401.90 3.37Q401.19 3.37 400.76 2.96Q400.32 2.55 400.32 1.90ZM409.25 15.21L406.42 15.21L406.42 6.71L404.84 6.71L404.84 4.64L406.42 4.64L406.42 3.74Q406.42 1.96 407.44 0.98Q408.46 0 410.29 0L410.29 0Q410.88 0 411.73 0.20L411.73 0.20L411.70 2.38Q411.35 2.29 410.84 2.29L410.84 2.29Q409.25 2.29 409.25 3.79L409.25 3.79L409.25 4.64L411.35 4.64L411.35 6.71L409.25 6.71L409.25 15.21ZM415.79 4.64L415.79 15.21L412.96 15.21L412.96 4.64L415.79 4.64ZM412.79 1.90L412.79 1.90Q412.79 1.27 413.22 0.86Q413.64 0.45 414.38 0.45L414.38 0.45Q415.10 0.45 415.53 0.86Q415.96 1.27 415.96 1.90L415.96 1.90Q415.96 2.55 415.52 2.96Q415.09 3.37 414.38 3.37Q413.66 3.37 413.23 2.96Q412.79 2.55 412.79 1.90ZM422.51 13.13L422.51 13.13Q423.29 13.13 423.78 12.70Q424.27 12.27 424.29 11.55L424.29 11.55L426.93 11.55Q426.92 12.63 426.35 13.52Q425.77 14.41 424.77 14.91Q423.77 15.40 422.56 15.40L422.56 15.40Q420.29 15.40 418.98 13.96Q417.68 12.52 417.68 9.98L417.68 9.98L417.68 9.79Q417.68 7.35 418.97 5.90Q420.27 4.44 422.54 4.44L422.54 4.44Q424.52 4.44 425.72 5.57Q426.91 6.70 426.93 8.57L426.93 8.57L424.29 8.57Q424.27 7.75 423.78 7.24Q423.29 6.73 422.49 6.73L422.49 6.73Q421.50 6.73 421.00 7.45Q420.50 8.16 420.50 9.78L420.50 9.78L420.50 10.07Q420.50 11.70 421.00 12.41Q421.49 13.13 422.51 13.13ZM437.52 15.21L434.67 15.21Q434.47 14.82 434.38 14.26L434.38 14.26Q433.36 15.40 431.72 15.40L431.72 15.40Q430.17 15.40 429.15 14.50Q428.13 13.60 428.13 12.24L428.13 12.24Q428.13 10.56 429.37 9.66Q430.62 8.76 432.97 8.75L432.97 8.75L434.27 8.75L434.27 8.14Q434.27 7.41 433.89 6.97Q433.52 6.53 432.71 6.53L432.71 6.53Q431.99 6.53 431.59 6.88Q431.18 7.22 431.18 7.81L431.18 7.81L428.36 7.81Q428.36 6.89 428.93 6.11Q429.49 5.33 430.53 4.89Q431.56 4.44 432.85 4.44L432.85 4.44Q434.80 4.44 435.95 5.42Q437.10 6.41 437.10 8.18L437.10 8.18L437.10 12.76Q437.11 14.27 437.52 15.04L437.52 15.04L437.52 15.21ZM432.33 13.24L432.33 13.24Q432.96 13.24 433.49 12.96Q434.01 12.69 434.27 12.22L434.27 12.22L434.27 10.40L433.21 10.40Q431.09 10.40 430.96 11.87L430.96 11.87L430.95 12.03Q430.95 12.56 431.32 12.90Q431.69 13.24 432.33 13.24ZM438.83 9.84L438.83 9.84Q438.83 7.37 439.94 5.91Q441.04 4.44 442.97 4.44L442.97 4.44Q444.51 4.44 445.52 5.60L445.52 5.60L445.52 0.21L448.35 0.21L448.35 15.21L445.80 15.21L445.66 14.08Q444.61 15.40 442.95 15.40L442.95 15.40Q441.08 15.40 439.96 13.93Q438.83 12.46 438.83 9.84ZM441.65 10.05L441.65 10.05Q441.65 11.53 442.17 12.32Q442.69 13.12 443.67 13.12L443.67 13.12Q444.98 13.12 445.52 12.01L445.52 12.01L445.52 7.84Q444.99 6.74 443.69 6.74L443.69 6.74Q441.65 6.74 441.65 10.05ZM459.51 15.21L456.66 15.21Q456.46 14.82 456.38 14.26L456.38 14.26Q455.35 15.40 453.71 15.40L453.71 15.40Q452.16 15.40 451.14 14.50Q450.12 13.60 450.12 12.24L450.12 12.24Q450.12 10.56 451.36 9.66Q452.61 8.76 454.96 8.75L454.96 8.75L456.26 8.75L456.26 8.14Q456.26 7.41 455.88 6.97Q455.51 6.53 454.70 6.53L454.70 6.53Q453.98 6.53 453.58 6.88Q453.17 7.22 453.17 7.81L453.17 7.81L450.35 7.81Q450.35 6.89 450.92 6.11Q451.48 5.33 452.52 4.89Q453.55 4.44 454.84 4.44L454.84 4.44Q456.80 4.44 457.94 5.42Q459.09 6.41 459.09 8.18L459.09 8.18L459.09 12.76Q459.10 14.27 459.51 15.04L459.51 15.04L459.51 15.21ZM454.33 13.24L454.33 13.24Q454.95 13.24 455.48 12.96Q456.01 12.69 456.26 12.22L456.26 12.22L456.26 10.40L455.21 10.40Q453.09 10.40 452.95 11.87L452.95 11.87L452.94 12.03Q452.94 12.56 453.31 12.90Q453.68 13.24 454.33 13.24ZM466.98 12.29L466.98 12.29Q466.98 11.77 466.47 11.47Q465.96 11.17 464.82 10.94L464.82 10.94Q461.05 10.15 461.05 7.73L461.05 7.73Q461.05 6.33 462.22 5.39Q463.39 4.44 465.27 4.44L465.27 4.44Q467.29 4.44 468.49 5.39Q469.70 6.34 469.70 7.85L469.70 7.85L466.88 7.85Q466.88 7.25 466.48 6.85Q466.09 6.46 465.26 6.46L465.26 6.46Q464.55 6.46 464.16 6.78Q463.77 7.10 463.77 7.60L463.77 7.60Q463.77 8.07 464.21 8.35Q464.66 8.64 465.71 8.85Q466.77 9.06 467.49 9.33L467.49 9.33Q469.73 10.15 469.73 12.17L469.73 12.17Q469.73 13.61 468.49 14.51Q467.25 15.40 465.28 15.40L465.28 15.40Q463.96 15.40 462.92 14.93Q461.89 14.45 461.31 13.63Q460.72 12.80 460.72 11.85L460.72 11.85L463.40 11.85Q463.44 12.60 463.96 13.00Q464.47 13.40 465.34 13.40L465.34 13.40Q466.15 13.40 466.57 13.09Q466.98 12.78 466.98 12.29Z"></path></g></svg></svg>